<svg width="28" height="28" viewBox="0 0 28 28" fill="none" xmlns="http://www.w3.org/2000/svg">
<path d="M19.8333 17.5H22.1667V19.8333H19.8333V17.5ZM19.8333 12.8333H22.1667V15.1666H19.8333V12.8333ZM19.8333 8.16663H22.1667V10.5H19.8333V8.16663ZM16.03 8.16663L17.5 9.14663V8.16663H16.03Z" fill="#454545"/>
<path d="M11.6667 3.5V5.26167L14 6.81333V5.83333H24.5V22.1667H19.8333V24.5H26.8333V3.5H11.6667Z" fill="#454545"/>
<path d="M9.53166 6.65002L17.5 11.9584V24.5H1.16666V12.2267L9.53166 6.65002ZM11.6667 22.1667H15.1667V13.02L9.53166 9.43836L3.49999 13.2767V22.1667H6.99999V15.1667H11.6667V22.1667Z" fill="#454545"/>
</svg>
