<svg width="28" height="28" viewBox="0 0 28 28" fill="none" xmlns="http://www.w3.org/2000/svg">
<path d="M5.83332 15.1667H18.865L13.1717 20.8601C12.7167 21.3151 12.7167 22.0617 13.1717 22.5167C13.6267 22.9717 14.3617 22.9717 14.8167 22.5167L22.505 14.8284C22.6131 14.7205 22.6989 14.5923 22.7575 14.4511C22.816 14.31 22.8462 14.1587 22.8462 14.0059C22.8462 13.8531 22.816 13.7018 22.7575 13.5607C22.6989 13.4195 22.6131 13.2913 22.505 13.1834L14.8283 5.48339C14.7203 5.37538 14.5921 5.2897 14.451 5.23124C14.3098 5.17279 14.1586 5.1427 14.0058 5.1427C13.8531 5.1427 13.7018 5.17279 13.5607 5.23124C13.4196 5.2897 13.2913 5.37538 13.1833 5.48339C13.0753 5.5914 12.9896 5.71963 12.9312 5.86076C12.8727 6.00188 12.8426 6.15314 12.8426 6.30589C12.8426 6.45864 12.8727 6.6099 12.9312 6.75102C12.9896 6.89215 13.0753 7.02038 13.1833 7.12839L18.865 12.8334H5.83332C5.19166 12.8334 4.66666 13.3584 4.66666 14.0001C4.66666 14.6417 5.19166 15.1667 5.83332 15.1667Z" fill="#454545"/>
</svg>
