<svg width="28" height="28" viewBox="0 0 28 28" fill="none" xmlns="http://www.w3.org/2000/svg">
<path d="M6.99999 22.1667C6.99999 23.45 8.05 24.5 9.33333 24.5H18.6667C19.95 24.5 21 23.45 21 22.1667V8.16667H6.99999V22.1667ZM10.6983 14.6883C10.4802 14.4702 10.3576 14.1743 10.3576 13.8658C10.3576 13.5573 10.4802 13.2615 10.6983 13.0433C10.9165 12.8252 11.2123 12.7026 11.5208 12.7026C11.8293 12.7026 12.1252 12.8252 12.3433 13.0433L14 14.6883L15.645 13.0433C15.8631 12.8252 16.159 12.7026 16.4675 12.7026C16.776 12.7026 17.0719 12.8252 17.29 13.0433C17.5081 13.2615 17.6307 13.5573 17.6307 13.8658C17.6307 14.1743 17.5081 14.4702 17.29 14.6883L15.645 16.3333L17.29 17.9783C17.398 18.0863 17.4837 18.2146 17.5421 18.3557C17.6006 18.4968 17.6307 18.6481 17.6307 18.8008C17.6307 18.9536 17.6006 19.1048 17.5421 19.246C17.4837 19.3871 17.398 19.5153 17.29 19.6233C17.182 19.7313 17.0538 19.817 16.9126 19.8755C16.7715 19.9339 16.6202 19.964 16.4675 19.964C16.3147 19.964 16.1635 19.9339 16.0224 19.8755C15.8812 19.817 15.753 19.7313 15.645 19.6233L14 17.9783L12.355 19.6233C12.247 19.7313 12.1188 19.817 11.9776 19.8755C11.8365 19.9339 11.6852 19.964 11.5325 19.964C11.3797 19.964 11.2285 19.9339 11.0874 19.8755C10.9462 19.817 10.818 19.7313 10.71 19.6233C10.602 19.5153 10.5163 19.3871 10.4578 19.246C10.3994 19.1048 10.3693 18.9536 10.3693 18.8008C10.3693 18.6481 10.3994 18.4968 10.4578 18.3557C10.5163 18.2146 10.602 18.0863 10.71 17.9783L12.355 16.3333L10.6983 14.6883ZM21 4.66667H18.0833L17.255 3.83833C17.045 3.62833 16.7417 3.5 16.4383 3.5H11.5617C11.2583 3.5 10.955 3.62833 10.745 3.83833L9.91666 4.66667H6.99999C6.35833 4.66667 5.83333 5.19167 5.83333 5.83333C5.83333 6.475 6.35833 7 6.99999 7H21C21.6417 7 22.1667 6.475 22.1667 5.83333C22.1667 5.19167 21.6417 4.66667 21 4.66667Z" fill="#454545"/>
</svg>
