<svg width="28" height="28" viewBox="0 0 28 28" fill="none" xmlns="http://www.w3.org/2000/svg">
<path d="M10.5 23.5H5.83333C5.10229 23.5 4.5 22.8977 4.5 22.1667V5.83333C4.5 5.10228 5.10228 4.5 5.83333 4.5H10.5C11.231 4.5 11.8333 5.10228 11.8333 5.83333V22.1667C11.8333 22.8977 11.231 23.5 10.5 23.5ZM22.1667 23.5H17.5C16.769 23.5 16.1667 22.8977 16.1667 22.1667V16.3333C16.1667 15.6023 16.769 15 17.5 15H22.1667C22.8977 15 23.5 15.6023 23.5 16.3333V22.1667C23.5 22.8977 22.8977 23.5 22.1667 23.5ZM23.5 5.83333V9.33333C23.5 10.0644 22.8977 10.6667 22.1667 10.6667H17.5C16.769 10.6667 16.1667 10.0644 16.1667 9.33333V5.83333C16.1667 5.10229 16.769 4.5 17.5 4.5H22.1667C22.8977 4.5 23.5 5.10229 23.5 5.83333Z" stroke="#454545" stroke-width="2"/>
</svg>
