<svg width="28" height="28" viewBox="0 0 28 28" fill="none" xmlns="http://www.w3.org/2000/svg">
<g clip-path="url(#clip0_604_12)">
<path d="M17.5 0.875C17.5 0.642936 17.4078 0.420376 17.2437 0.256282C17.0796 0.0921873 16.8571 0 16.625 0L11.375 0C11.1429 0 10.9204 0.0921873 10.7563 0.256282C10.5922 0.420376 10.5 0.642936 10.5 0.875C10.5 1.10706 10.4078 1.32962 10.2437 1.49372C10.0796 1.65781 9.85706 1.75 9.625 1.75C9.39294 1.75 9.17038 1.84219 9.00628 2.00628C8.84219 2.17038 8.75 2.39294 8.75 2.625V3.5C8.75 3.73206 8.84219 3.95462 9.00628 4.11872C9.17038 4.28281 9.39294 4.375 9.625 4.375H18.375C18.6071 4.375 18.8296 4.28281 18.9937 4.11872C19.1578 3.95462 19.25 3.73206 19.25 3.5V2.625C19.25 2.39294 19.1578 2.17038 18.9937 2.00628C18.8296 1.84219 18.6071 1.75 18.375 1.75C18.1429 1.75 17.9204 1.65781 17.7563 1.49372C17.5922 1.32962 17.5 1.10706 17.5 0.875V0.875Z" fill="#454545"/>
<path d="M7.14875 1.75H6.125C5.42881 1.75 4.76113 2.02656 4.26884 2.51884C3.77656 3.01113 3.5 3.67881 3.5 4.375V25.375C3.5 26.0712 3.77656 26.7389 4.26884 27.2312C4.76113 27.7234 5.42881 28 6.125 28H21.875C22.5712 28 23.2389 27.7234 23.7312 27.2312C24.2234 26.7389 24.5 26.0712 24.5 25.375V4.375C24.5 3.67881 24.2234 3.01113 23.7312 2.51884C23.2389 2.02656 22.5712 1.75 21.875 1.75H20.8512C20.9475 2.023 21 2.31875 21 2.625V3.5C21 4.19619 20.7234 4.86387 20.2312 5.35616C19.7389 5.84844 19.0712 6.125 18.375 6.125H9.625C8.92881 6.125 8.26113 5.84844 7.76884 5.35616C7.27656 4.86387 7 4.19619 7 3.5V2.625C7 2.31875 7.0525 2.023 7.14875 1.75ZM18.9945 13.7445L13.7445 18.9945C13.6632 19.076 13.5667 19.1406 13.4604 19.1847C13.3541 19.2289 13.2401 19.2516 13.125 19.2516C13.0099 19.2516 12.8959 19.2289 12.7896 19.1847C12.6833 19.1406 12.5868 19.076 12.5055 18.9945L9.8805 16.3695C9.79915 16.2881 9.73461 16.1916 9.69058 16.0853C9.64656 15.979 9.62389 15.8651 9.62389 15.75C9.62389 15.6349 9.64656 15.521 9.69058 15.4147C9.73461 15.3084 9.79915 15.2119 9.8805 15.1305C10.0448 14.9662 10.2676 14.8739 10.5 14.8739C10.6151 14.8739 10.729 14.8966 10.8353 14.9406C10.9416 14.9846 11.0381 15.0491 11.1195 15.1305L13.125 17.1378L17.7555 12.5055C17.9198 12.3412 18.1426 12.2489 18.375 12.2489C18.6074 12.2489 18.8302 12.3412 18.9945 12.5055C19.1588 12.6698 19.2511 12.8926 19.2511 13.125C19.2511 13.3574 19.1588 13.5802 18.9945 13.7445V13.7445Z" fill="#454545"/>
</g>
<defs>
<clipPath id="clip0_604_12">
<rect width="28" height="28" fill="white"/>
</clipPath>
</defs>
</svg>
