<svg width="28" height="28" viewBox="0 0 28 28" fill="none" xmlns="http://www.w3.org/2000/svg">
<path d="M14 2.33334C7.56 2.33334 2.33333 7.56 2.33333 14C2.33333 20.44 7.56 25.6667 14 25.6667C20.44 25.6667 25.6667 20.44 25.6667 14C25.6667 7.56 20.44 2.33334 14 2.33334ZM10.8383 19.005L6.65 14.8167C6.54199 14.7087 6.45631 14.5804 6.39785 14.4393C6.3394 14.2982 6.30931 14.1469 6.30931 13.9942C6.30931 13.8414 6.3394 13.6902 6.39785 13.549C6.45631 13.4079 6.54199 13.2797 6.65 13.1717C6.75801 13.0637 6.88624 12.978 7.02737 12.9195C7.16849 12.8611 7.31975 12.831 7.4725 12.831C7.62525 12.831 7.77651 12.8611 7.91763 12.9195C8.05876 12.978 8.18699 13.0637 8.295 13.1717L11.6667 16.5317L19.6933 8.505C19.9115 8.28686 20.2073 8.16431 20.5158 8.16431C20.8243 8.16431 21.1202 8.28686 21.3383 8.505C21.5565 8.72314 21.679 9.01901 21.679 9.3275C21.679 9.636 21.5565 9.93186 21.3383 10.15L12.4833 19.005C12.3754 19.1132 12.2472 19.199 12.1061 19.2575C11.9649 19.3161 11.8136 19.3462 11.6608 19.3462C11.508 19.3462 11.3567 19.3161 11.2156 19.2575C11.0745 19.199 10.9463 19.1132 10.8383 19.005Z" fill="#454545"/>
</svg>
