<svg width="24" height="24" viewBox="0 0 24 24" fill="none" xmlns="http://www.w3.org/2000/svg">
<path d="M9 20H5C4.45228 20 4 19.5477 4 19V5C4 4.45228 4.45228 4 5 4H9C9.54772 4 10 4.45228 10 5V19C10 19.5477 9.54772 20 9 20ZM19 20H15C14.4523 20 14 19.5477 14 19V14C14 13.4523 14.4523 13 15 13H19C19.5477 13 20 13.4523 20 14V19C20 19.5477 19.5477 20 19 20ZM20 5V8C20 8.54772 19.5477 9 19 9H15C14.4523 9 14 8.54772 14 8V5C14 4.45228 14.4523 4 15 4H19C19.5477 4 20 4.45228 20 5Z" stroke="white" stroke-width="2"/>
</svg>
