<svg width="24" height="24" viewBox="0 0 24 24" fill="none" xmlns="http://www.w3.org/2000/svg">
<path d="M13.783 15.172L15.904 13.051L21.9 19.047L19.779 21.168L13.783 15.172ZM17.5 10C19.43 10 21 8.43 21 6.5C21 5.92 20.84 5.38 20.59 4.9L17.89 7.6L16.4 6.11L19.1 3.41C18.62 3.16 18.08 3 17.5 3C15.57 3 14 4.57 14 6.5C14 6.91 14.08 7.3 14.21 7.66L12.36 9.51L10.58 7.73L11.29 7.02L9.88001 5.61L12 3.49C11.4375 2.9282 10.675 2.61264 9.88001 2.61264C9.085 2.61264 8.32251 2.9282 7.76001 3.49L4.22001 7.03L5.63001 8.44H2.81001L2.10001 9.15L5.64001 12.69L6.35001 11.98V9.15L7.76001 10.56L8.47001 9.85L10.25 11.63L2.84001 19.04L4.96001 21.16L16.34 9.79C16.7 9.92 17.09 10 17.5 10Z" fill="black"/>
</svg>
