<svg width="16" height="16" viewBox="0 0 16 16" fill="none" xmlns="http://www.w3.org/2000/svg">
<path d="M11.3333 7.99999C9.49332 7.99999 7.99999 9.49332 7.99999 11.3333C7.99999 13.1733 9.49332 14.6667 11.3333 14.6667C13.1733 14.6667 14.6667 13.1733 14.6667 11.3333C14.6667 9.49332 13.1733 7.99999 11.3333 7.99999ZM12.4333 12.9L11 11.4667V9.33332H11.6667V11.1933L12.9 12.4267L12.4333 12.9V12.9ZM12 1.99999H9.87999C9.59999 1.22666 8.86666 0.666656 7.99999 0.666656C7.13332 0.666656 6.39999 1.22666 6.11999 1.99999H3.99999C3.26666 1.99999 2.66666 2.59999 2.66666 3.33332V13.3333C2.66666 14.0667 3.26666 14.6667 3.99999 14.6667H8.07332C7.67891 14.2838 7.35804 13.8319 7.12666 13.3333H3.99999V3.33332H5.33332V5.33332H10.6667V3.33332H12V6.71999C12.4733 6.78666 12.92 6.92666 13.3333 7.11999V3.33332C13.3333 2.59999 12.7333 1.99999 12 1.99999ZM7.99999 3.33332C7.63332 3.33332 7.33332 3.03332 7.33332 2.66666C7.33332 2.29999 7.63332 1.99999 7.99999 1.99999C8.36666 1.99999 8.66666 2.29999 8.66666 2.66666C8.66666 3.03332 8.36666 3.33332 7.99999 3.33332Z" fill="#757575"/>
</svg>
